PathFileType	4	(X/Y/Z)	S00_P01_T02_Participants1-2_P1_0-100.trc
DataRate	CameraRate	NumFrames	NumMarkers	Units	OrigDataRate	OrigDataStartFrame	OrigNumFrames
60	60	8	21	m	60	75	100
Frame#	Time	RHip			RKnee			RAnkle			RBigToe			RSmallToe			RHeel			LHip			LKnee			LAnkle			LBigToe			LSmallToe			LHeel			Neck			Head			Nose			RShoulder			RElbow			RWrist			LShoulder			LElbow			LWrist		
		X1	Y1	Z1	X2	Y2	Z2	X3	Y3	Z3	X4	Y4	Z4	X5	Y5	Z5	X6	Y6	Z6	X7	Y7	Z7	X8	Y8	Z8	X9	Y9	Z9	X10	Y10	Z10	X11	Y11	Z11	X12	Y12	Z12	X13	Y13	Z13	X14	Y14	Z14	X15	Y15	Z15	X16	Y16	Z16	X17	Y17	Z17	X18	Y18	Z18	X19	Y19	Z19	X20	Y20	Z20	X21	Y21	Z21
76	1.2666666666666666	-1.0509667754376149	0.9001485592064499	-0.9744017851045491	-0.8757672694804709	0.8895240851393127	-0.7314036863005541	-0.8566151226703508	0.8549823361194652	-0.9635259896866608	-0.7526327845164033	0.848288942273496	-1.0311418453263228	-0.7754920309021325	0.8277254133195602	-1.0268011429357595	-0.8743882437402523	0.8590686198214587	-1.0081220663472779	-1.051525607258409	0.9007671603426565	-1.118578747332823	-0.8779885007088224	0.8920146083050499	-1.3568174884680306	-0.8896757343865558	0.8699492203042535	-1.1239491094351701	-0.789162678890375	0.861739675612585	-1.0580117827859739	-0.8128944536855929	0.841948674447782	-1.0618844652002852	-0.9114871365286028	0.8765897296403641	-1.0793647653660632	-1.072656141438794	1.3101060715316244	-1.045886097650855	-1.0377862716838404	1.467726238359043	-1.0580856568034371	-0.9873812743321885	1.3732694605247908	-1.0445266662219725	-1.0799034784506658	1.2570315967880745	-0.9139357756048141	-1.0442630355475557	1.0968636352100227	-0.8075641121663394	-0.9085395568602525	0.9856987437781672	-0.8900662085645328	-1.080798289028855	1.2581130822393298	-1.178385256319971	-1.0443474389224534	1.085769826232851	-1.2647036665885123	-0.9045848736176648	0.9952427704127044	-1.159976248650544
77	1.2833333333333334	-1.050971244242138	0.902984905357489	-0.9743974942001319	-0.8757728373193973	0.8923598219482448	-0.7313938843799186	-0.8577433386248114	0.8583008774442552	-0.9636666249677953	-0.7540737339694275	0.8516715254278051	-1.0317736449788792	-0.7769268847065739	0.8311147513245529	-1.027370692093488	-0.8757102342925885	0.8624882478477669	-1.0081760914462128	-1.051529508410083	0.9036032423941573	-1.1185747609484415	-0.8779907929793658	0.8948495816724609	-1.3568110995927432	-0.8896791535785553	0.8727846872754093	-1.123942434410035	-0.7891662983170259	0.8645749586513919	-1.0580029271861027	-0.8128980879504516	0.8447838792759071	-1.0618760870132704	-0.9114908190722755	0.87942536888807	-1.079358260865856	-1.0726657972438534	1.3129443929063613	-1.0458815798625505	-1.0377999917368044	1.4705571596247997	-1.0580923864712581	-0.9873864663836349	1.376108939825613	-1.0445175878042785	-1.0799116350657016	1.2598702703998073	-0.9139320596400234	-1.0440188497257026	1.09854833382613	-0.8091462053402384	-0.9070188028835033	0.9891746073093317	-0.8919032417659448	-1.0808031468638697	1.260951629436596	-1.1783774849166566	-1.0443511208738365	1.088606739141994	-1.2646975103756557	-0.9045342470308679	0.9995787857548262	-1.158576752920625
78	1.3	-1.0509759653800037	0.9059800754760425	-0.9743929565319889	-0.8757787168613984	0.8953543462351305	-0.731383546837039	-0.8589349754503909	0.8618063401368057	-0.9638085706938141	-0.7555979108051809	0.8552458739114888	-1.0324325968180608	-0.7784443245232441	0.8346960993649538	-1.02796391809934	-0.8771059858830439	0.8661004081399359	-1.008225394066638	-1.0515336304483007	0.9065981331843544	-1.118570535048328	-0.8779932134479174	0.8978432994608382	-1.3568043282945723	-0.8896827637562101	0.8757789271669086	-1.1239353766186424	-0.7891701185404569	0.8675690035874752	-1.0579935745383637	-0.812901923691961	0.8477778417406621	-1.0618672378544658	-0.9114947077881551	0.8824197909681717	-1.0793513848187104	-1.0726786993335462	1.3159410098355855	-1.0458785721371755	-1.037814475629758	1.4735465854666547	-1.0580994657887244	-0.9873917229289174	1.3791074764646165	-1.0445077680491128	-1.079902196581157	1.2628717014331698	-0.9139149627460362	-1.043763683245059	1.100344506899624	-0.8108276319067239	-0.9054293206633277	0.9928632425026225	-0.8938149450667627	-1.08080829305082	1.2639491235919948	-1.1783692239448527	-1.0443550179319725	1.0916025067004336	-1.2646909673253508	-0.9044964573773898	1.0041683015039164	-1.1571104118404314
79	1.3166666666666669	-1.0509809138990427	0.9091179773950834	-0.9743881953190745	-0.8757848765660926	0.8984915689438582	-0.7313727312740971	-0.8601836342580715	0.865480045465407	-0.9639500435817998	-0.7571974751914987	0.8589931315325914	-1.0331138675524274	-0.7800365003828978	0.8384505427671444	-1.0285763442813411	-0.8785679179842157	0.869885838006571	-1.0082685082531024	-1.051537951698962	0.9097357419748704	-1.1185660896112422	-0.8779957491788936	0.900979676884679	-1.3567972069336256	-0.8896865455315607	0.878915852525356	-1.1239279724617306	-0.7891741188162393	0.8707057239050493	-1.0579837748494594	-0.8129059400589524	0.8509144757876481	-1.0618579649160296	-0.9114987818598093	0.8855569074903591	-1.0793441729113542	-1.0726943465974115	1.3190799242733349	-1.045876792905584	-1.037829644894413	1.4766784521474943	-1.0581068522385635	-0.9873969719137949	1.382248971263865	-1.0444972163600788	-1.079859736348169	1.2660230301118371	-0.9138732970508867	-1.043499348277932	1.1022452300242433	-0.8126008155705301	-0.903782311040648	0.9967467828637805	-0.8957864734731283	-1.0808137026144617	1.267089459998722	-1.1783605090157097	-1.0443591106658725	1.0947410333585599	-1.2646840657633687	-0.9044741380749268	1.008988128652482	-1.1555870599775606
80	1.3333333333333333	-1.0509860636204138	0.9123817474188911	-0.9743832350127483	-0.8757912833958039	0.9017546296967096	-0.731361497742894	-0.8614825961131624	0.8693023899785197	-0.9640893297566361	-0.7588641416351621	0.8628934785592233	-1.033812583271105	-0.7816951233168128	0.8423582036403942	-1.0292034706024813	-0.8800880842040029	0.8738243225631399	-1.008304081349652	-1.05154244941188	0.9129992065767213	-1.118561445915168	-0.8779983866408635	0.9042418580456412	-1.35678976996233	-0.8896904786163904	0.882178604637104	-1.1239202602703433	-0.7891782774654458	0.8739682618906675	-1.0579735805376602	-0.812910115264227	0.8541769241840881	-1.0618483176806204	-0.9115030194916148	0.8888198587530454	-1.0793366626877774	-1.0727099635528259	1.3223449051800862	-1.0458744361301493	-1.0378454174130611	1.4799359261321683	-1.058114501850451	-0.9874022741375305	1.3855165206891327	-1.0444860508003797	-1.079768706482157	1.2693106564319034	-0.9137957799684433	-1.0432276849104285	1.1042428536866837	-0.8144575181009704	-0.9020891456388511	1.0008058894756489	-0.8978029164090222	-1.080819349026564	1.270355761823323	-1.17835137866143	-1.044363378528408	1.0980054518988362	-1.2646768363046132	-0.9044696760424416	1.0140136709627199	-1.1540167658312324
81	1.35	-1.0509913872734638	0.9157538427421549	-0.9743781011863573	-0.8757979029953804	0.9051259892022082	-0.7313499083745858	-0.8628248590103761	0.8732529499410363	-0.9642248145164476	-0.7605892177130075	0.8669262335147514	-1.0345238820510587	-0.7834115050295591	0.8463983434081176	-1.029840824137547	-0.8816582177197335	0.8778948027520631	-1.0083309053645135	-1.0515470998756362	0.9163709857626186	-1.1185566264756368	-0.8780011117788961	0.9076123083173401	-1.356782053817357	-0.8896945419328602	0.885549645925722	-1.1239122801263979	-0.7891825719974823	0.8773390810273802	-1.057963046150525	-0.8129144267084464	0.8575476509099879	-1.0618383476574116	-0.9115073980263034	0.8921911061454104	-1.079328893368871	-1.0727190621484541	1.3257199232420518	-1.0458672036800984	-1.0378617078813868	1.483301496389824	-1.0581223695326503	-0.9874079557003156	1.38889247791516	-1.044474601836909	-1.0796234099977369	1.272718234045027	-0.9136782903898298	-1.0429505419980216	1.10632898968465	-0.8163888569845832	-0.9003612501642617	1.0050198236945254	-0.8998494803251711	-1.0808252042974436	1.2737304725979317	-1.1783418743002796	-1.0443677999381322	1.1013782158777345	-1.2646693118224661	-0.9044851495277666	1.019219031291429	-1.1524097360505001
82	1.3666666666666667	-1.0509968566429624	0.9192161420605883	-0.9743728204121916	-0.8758046998870563	0.9085875298519118	-0.7313380269866238	-0.8642031787615676	0.8773105960590537	-0.9643550097519956	-0.7623636487568755	0.8710699660205309	-1.0352429651621062	-0.785176603377186	0.8505494763519533	-1.0304840079425306	-0.883269781060046	0.8820754939701019	-1.008347945186469	-1.051551878543213	0.9198329598698944	-1.1185516549688677	-0.8780039100919464	0.9110729149166589	-1.3567740967857842	-0.8896987137324914	0.8890108605377065	-1.1239040736621912	-0.7891869792414246	0.8808000665762578	-1.0579522280575486	-0.8129188511125053	0.8610085417364893	-1.061828108094255	-0.9115118940718044	0.8956525327382839	-1.0793209056521489	-1.0727103832220628	1.3291895043541202	-1.045847591938303	-1.037878428308444	1.4867570748656083	-1.0581304094158204	-0.9874147542478167	1.3923585188172365	-1.0444635268573275	-1.0794457178966308	1.276223037861531	-0.9135367668553772	-1.0426697581064284	1.1084945087622913	-0.8183853354933758	-0.8986099886257715	1.009366551606693	-0.9019116664603192	-1.0808312390861867	1.2771954569104784	-1.1783320401614938	-1.044372352373902	1.1048412002604666	-1.2646615273872996	-0.9045222725570559	1.024577138078113	-1.150776217894621
83	1.3833333333333333	-1.0510024427317584	0.9227500560941251	-0.9743674201223944	-0.8758116376838786	0.9121206662261381	-0.731325918662226	-0.8656101144451436	0.8814536205848708	-0.9644785784777405	-0.7641780695316505	0.8753026229316977	-1.0359651464427906	-0.7869810746583084	0.8547894964054005	-1.0311287478561348	-0.8849140209427199	0.8863440174462791	-1.0083543629509677	-1.0515567601711369	0.923366541314911	-1.1185465561354975	-0.8780067667168022	0.9146050973815433	-1.3567659388390154	-0.8897029717256478	0.8925436648367913	-1.1238956838337766	-0.7891914754879864	0.8843326360654611	-1.0579411841121762	-0.8129233646605094	0.8645410147115619	-1.0618176536606498	-0.9115164836397389	0.8991855537843567	-1.0793127414867563	-1.0726684496246814	1.3327387111486468	-1.0458052605599324	-1.0378954885617595	1.4902841068380193	-1.05813857521009	-0.9874239031038754	1.3958957326550563	-1.0444538758703972	-1.0793099677551712	1.2797908221806602	-0.9134253425399449	-1.0423871426962845	1.1107295523023235	-0.8204368867734225	-0.8968465493612551	1.0138228825964395	-0.9039754409030507	-1.0808374228342514	1.280732111015228	-1.1783219231597286	-1.0443770124852503	1.1083758119698544	-1.2646535201660234	-0.9045823475326278	1.0300598953704205	-1.1491264005191957
